<svg xmlns="http://www.w3.org/2000/svg" version="1.1" xmlns:xlink="http://www.w3.org/1999/xlink" xmlns:svgjs="http://svgjs.dev/svgjs" width="1000" height="1000" viewBox="0 0 1000 1000"><rect width="1000" height="1000" fill="#ffffff"></rect><g transform="matrix(0.7,0,0,0.7,149.57575757575756,393.11325747655064)"><svg viewBox="0 0 396 121" data-background-color="#ffffff" preserveAspectRatio="xMidYMid meet" height="305" width="1000" xmlns="http://www.w3.org/2000/svg" xmlns:xlink="http://www.w3.org/1999/xlink"><g id="tight-bounds" transform="matrix(1,0,0,1,0.2400000000000091,0.07749810462470919)"><svg viewBox="0 0 395.52 120.84500379075057" height="120.84500379075057" width="395.52"><g><svg viewBox="0 0 395.52 120.84500379075057" height="120.84500379075057" width="395.52"><g><svg viewBox="0 0 395.52 120.84500379075057" height="120.84500379075057" width="395.52"><g><svg viewBox="0 0 395.52 120.84500379075057" height="120.84500379075057" width="395.52"><g id="textblocktransform"><svg viewBox="0 0 395.52 120.84500379075057" height="120.84500379075057" width="395.52" id="textblock"><g><svg viewBox="0 0 395.52 120.84500379075057" height="120.84500379075057" width="395.52"><g transform="matrix(1,0,0,1,0,0)"><svg width="395.52" viewBox="1.6 -35.95 131.89000000000001 40.300000000000004" height="120.84500379075057" data-palette-color="#584545"><path d="M12.5 4.35L12.5 4.35Q8.7 4.35 6.28 2.55 3.85 0.75 2.73-2.1 1.6-4.95 1.6-8L1.6-8Q1.6-11.95 2.8-15.93 4-19.9 6.13-23.5 8.25-27.1 10.95-29.9 13.65-32.7 16.73-34.33 19.8-35.95 22.85-35.95L22.85-35.95Q25.05-35.95 26.55-34.93 28.05-33.9 28.05-31.4L28.05-31.4Q28.05-29.9 27.53-28.05 27-26.2 26.13-24.48 25.25-22.75 24.15-21.65 23.05-20.55 21.9-20.55L21.9-20.55Q21.4-20.55 20.85-20.9 20.3-21.25 19.85-22.1L19.85-22.1Q20.6-22.95 21.55-24.18 22.5-25.4 23.35-26.78 24.2-28.15 24.75-29.48 25.3-30.8 25.3-31.8L25.3-31.8Q25.3-32.7 24.8-33.23 24.3-33.75 23.05-33.75L23.05-33.75Q20.85-33.75 18.53-32.1 16.2-30.45 14.05-27.68 11.9-24.9 10.18-21.48 8.45-18.05 7.45-14.43 6.45-10.8 6.45-7.55L6.45-7.55Q6.45-5.15 7.18-2.98 7.9-0.8 9.5 0.58 11.1 1.95 13.7 1.95L13.7 1.95Q16.4 1.95 19.07 0.45 21.75-1.05 23.98-3.5 26.2-5.95 27.55-8.75L27.55-8.75 28.85-7.9Q27.1-4.55 24.65-1.78 22.2 1 19.13 2.68 16.05 4.35 12.5 4.35ZM28.65 1.9L28.65 1.9Q27.55 1.9 27.07 0.2 26.6-1.5 26.6-3.75L26.6-3.75Q26.6-6.05 27.37-9.3 28.15-12.55 29.47-16.15 30.8-19.75 32.42-23.2 34.05-26.65 35.77-29.48 37.5-32.3 39.07-34 40.65-35.7 41.85-35.7L41.85-35.7Q42.9-35.7 43.45-34.55 44-33.4 44-32.15L44-32.15Q44-30.8 43.37-28.83 42.75-26.85 41.65-24.6 40.55-22.35 39.07-20.18 37.6-18 35.87-16.2 34.15-14.4 32.3-13.3L32.3-13.3Q31.65-11.6 31.27-10.13 30.9-8.65 30.75-7.35 30.6-6.05 30.6-4.8L30.6-4.8Q30.6-4.55 30.62-4.28 30.65-4 30.65-3.75L30.65-3.75Q30.85-4.05 31.3-5.3 31.75-6.55 32.52-8.22 33.3-9.9 34.45-11.53 35.6-13.15 37.15-14.23 38.7-15.3 40.7-15.3L40.7-15.3Q42.4-15.3 43.35-14.53 44.3-13.75 44.7-12.63 45.1-11.5 45.1-10.35L45.1-10.35Q45.1-8.75 44.57-7.35 44.05-5.95 43.52-4.73 43-3.5 43-2.4L43-2.4Q43-1.5 43.4-1.15 43.8-0.8 44.35-0.8L44.35-0.8Q45.45-0.8 46.92-1.9 48.4-3 49.87-4.83 51.35-6.65 52.4-8.85L52.4-8.85 53.2-8Q52.05-5.5 50.5-3.4 48.95-1.3 47.1-0.05 45.25 1.2 43.1 1.2L43.1 1.2Q41.2 1.2 40.2 0.2 39.2-0.8 39.2-2.3L39.2-2.3Q39.2-3.35 39.57-4.63 39.95-5.9 40.3-7.2 40.65-8.5 40.65-9.55L40.65-9.55Q40.65-10.75 40.12-11.2 39.6-11.65 38.85-11.65L38.85-11.65Q37.6-11.65 36.6-10.68 35.6-9.7 34.8-8.15 34-6.6 33.3-4.88 32.6-3.15 31.9-1.6 31.2-0.05 30.42 0.93 29.65 1.9 28.65 1.9ZM33.35-16.5L33.35-16.5Q34.65-17.65 35.85-19.25 37.05-20.85 38.07-22.58 39.1-24.3 39.87-25.93 40.65-27.55 41.1-28.85 41.55-30.15 41.6-30.85L41.6-30.85Q41.6-30.9 41.6-30.93 41.6-30.95 41.6-31L41.6-31Q41.3-31 40.32-29.78 39.35-28.55 38.07-26.48 36.8-24.4 35.52-21.8 34.25-19.2 33.35-16.5ZM53.84 2.35L53.84 2.35Q52.2 2.35 50.97 1.25 49.75 0.15 49.75-2.05L49.75-2.05Q49.75-3.8 50.55-5.85 51.34-7.9 52.75-9.9 54.15-11.9 55.95-13.53 57.75-15.15 59.8-16.15 61.84-17.15 63.9-17.15L63.9-17.15Q66.05-17.15 67.55-16.05 69.05-14.95 69.05-13.15L69.05-13.15Q69.05-11.8 68.09-11.2 67.15-10.6 65.84-10.85L65.84-10.85Q65.95-11.3 66.02-11.75 66.09-12.2 66.09-12.7L66.09-12.7Q66.09-13.7 65.7-14.5 65.3-15.3 64-15.3L64-15.3Q62.59-15.3 61.15-14.35 59.7-13.4 58.37-11.88 57.05-10.35 56-8.53 54.95-6.7 54.34-4.95 53.75-3.2 53.75-1.8L53.75-1.8Q53.75-0.2 54.9-0.2L54.9-0.2Q56.05-0.2 57.45-1.33 58.84-2.45 60.27-4.15 61.7-5.85 63-7.63 64.3-9.4 65.25-10.65L65.25-10.65Q65.4-10.9 65.65-10.9L65.65-10.9Q65.84-10.85 66.42-10.68 67-10.5 67.5-10.15 68-9.8 68-9.25L68-9.25Q68-8.75 67.57-7.98 67.15-7.2 66.57-6.28 66-5.35 65.57-4.42 65.15-3.5 65.15-2.65L65.15-2.65Q65.15-2 65.5-1.43 65.84-0.85 66.65-0.85L66.65-0.85Q67.84-0.85 70.02-2.63 72.2-4.4 74.45-8.65L74.45-8.65 75.4-7.7Q74.2-5 72.52-2.93 70.84-0.85 69 0.33 67.15 1.5 65.25 1.5L65.25 1.5Q63.2 1.5 62.2 0.2 61.2-1.1 61.09-2.6L61.09-2.6Q61.09-2.7 61.09-2.75 61.09-2.8 61.09-2.85L61.09-2.85Q59.09-0.45 57.42 0.95 55.75 2.35 53.84 2.35ZM77.79 2.3L77.79 2.3Q75.59 2.3 74.24 1 72.89-0.3 72.89-2.95L72.89-2.95Q72.89-5 73.67-8.05 74.44-11.1 75.64-14.35L75.64-14.35Q75.29-14.45 74.82-14.53 74.34-14.6 73.89-14.8L73.89-14.8 73.89-16.35Q74.69-16.25 75.22-16.2 75.74-16.15 76.29-16.1L76.29-16.1Q77.34-18.75 78.57-21.23 79.79-23.7 81.02-25.65 82.24-27.6 83.34-28.73 84.44-29.85 85.29-29.85L85.29-29.85Q85.79-29.85 86.24-29.48 86.69-29.1 86.69-28.4L86.69-28.4Q86.69-27.4 85.67-25.55 84.64-23.7 83.14-21.23 81.64-18.75 80.24-15.95L80.24-15.95Q80.64-15.95 81.04-15.95 81.44-15.95 81.79-15.95L81.79-15.95Q83.99-15.95 85.77-16.03 87.54-16.1 89.39-16.3L89.39-16.3 89.39-14.65Q86.64-14.4 84.34-14.25 82.04-14.1 79.94-14.05L79.94-14.05Q79.79-14.05 79.64-14.05 79.49-14.05 79.34-14.05L79.34-14.05Q78.29-11.6 77.52-9.03 76.74-6.45 76.74-4L76.74-4Q76.74-1.95 77.39-1.1 78.04-0.25 79.44-0.25L79.44-0.25Q81.94-0.25 84.57-2.53 87.19-4.8 89.14-8.7L89.14-8.7 89.84-8.2Q88.54-5.25 86.62-2.85 84.69-0.45 82.44 0.93 80.19 2.3 77.79 2.3ZM92.19 2.3L92.19 2.3Q89.99 2.3 88.64 1 87.29-0.3 87.29-2.95L87.29-2.95Q87.29-5 88.07-8.05 88.84-11.1 90.04-14.35L90.04-14.35Q89.69-14.45 89.22-14.53 88.74-14.6 88.29-14.8L88.29-14.8 88.29-16.35Q89.09-16.25 89.62-16.2 90.14-16.15 90.69-16.1L90.69-16.1Q91.74-18.75 92.97-21.23 94.19-23.7 95.42-25.65 96.64-27.6 97.74-28.73 98.84-29.85 99.69-29.85L99.69-29.85Q100.19-29.85 100.64-29.48 101.09-29.1 101.09-28.4L101.09-28.4Q101.09-27.4 100.07-25.55 99.04-23.7 97.54-21.23 96.04-18.75 94.64-15.95L94.64-15.95Q95.04-15.95 95.44-15.95 95.84-15.95 96.19-15.95L96.19-15.95Q98.39-15.95 100.17-16.03 101.94-16.1 103.79-16.3L103.79-16.3 103.79-14.65Q101.04-14.4 98.74-14.25 96.44-14.1 94.34-14.05L94.34-14.05Q94.19-14.05 94.04-14.05 93.89-14.05 93.74-14.05L93.74-14.05Q92.69-11.6 91.92-9.03 91.14-6.45 91.14-4L91.14-4Q91.14-1.95 91.79-1.1 92.44-0.25 93.84-0.25L93.84-0.25Q96.34-0.25 98.97-2.53 101.59-4.8 103.54-8.7L103.54-8.7 104.24-8.2Q102.94-5.25 101.02-2.85 99.09-0.45 96.84 0.93 94.59 2.3 92.19 2.3ZM106.04 1.5L106.04 1.5Q103.84 1.5 102.74 0.2 101.64-1.1 101.64-2.95L101.64-2.95Q101.64-4.1 102.04-5.85 102.44-7.6 103.16-9.53 103.89-11.45 104.84-13.15 105.79-14.85 106.89-15.93 107.99-17 109.09-17L109.09-17Q109.69-17 110.14-16.65 110.59-16.3 110.59-15.55L110.59-15.55Q110.59-14.9 109.81-13.6 109.04-12.3 108.01-10.6 106.99-8.9 106.21-7.08 105.44-5.25 105.44-3.6L105.44-3.6Q105.44-2 106.01-1.48 106.59-0.95 107.69-0.95L107.69-0.95Q109.39-0.95 111.39-2.65 113.39-4.35 115.54-8.6L115.54-8.6 116.29-7.8Q114.54-3.4 111.84-0.95 109.14 1.5 106.04 1.5ZM111.94-21.05L111.94-21.05Q110.99-21.05 110.21-21.53 109.44-22 109.44-23L109.44-23Q109.44-24.2 110.74-25.05 112.04-25.9 113.44-25.9L113.44-25.9Q114.34-25.9 114.96-25.5 115.59-25.1 115.59-24.05L115.59-24.05Q115.59-23 114.44-22.03 113.29-21.05 111.94-21.05ZM120.04 2.2L120.04 2.2Q116.84 2.2 115.11 0.48 113.39-1.25 113.39-3.85L113.39-3.85Q113.39-6.05 114.51-8.53 115.64-11 117.54-13.18 119.44-15.35 121.74-16.7 124.04-18.05 126.34-18.05L126.34-18.05Q127.64-18.05 128.81-17.38 129.99-16.7 129.99-14.7L129.99-14.7Q129.99-12.8 128.89-11.15 127.79-9.5 125.94-8.2 124.09-6.9 121.86-6.08 119.64-5.25 117.39-5L117.39-5Q117.34-4.8 117.31-4.58 117.29-4.35 117.29-3.85L117.29-3.85Q117.29-3.6 117.36-2.98 117.44-2.35 117.79-1.65 118.14-0.95 118.94-0.45 119.74 0.05 121.14 0.05L121.14 0.05Q123.24 0.05 125.36-1.13 127.49-2.3 129.36-4.25 131.24-6.2 132.49-8.6L132.49-8.6 133.49-7.8Q132.14-4.8 130.01-2.55 127.89-0.3 125.31 0.95 122.74 2.2 120.04 2.2ZM117.94-6.85L117.94-6.85Q119.24-7 120.84-7.75 122.44-8.5 123.91-9.65 125.39-10.8 126.34-12.18 127.29-13.55 127.29-14.95L127.29-14.95Q127.29-15.5 127.09-15.7 126.89-15.9 126.44-15.9L126.44-15.9Q125.29-15.9 124.04-15.08 122.79-14.25 121.59-12.93 120.39-11.6 119.44-10 118.49-8.4 117.94-6.85Z" opacity="1" transform="matrix(1,0,0,1,0,0)" fill="#000000" class="undefined-text-0" data-fill-palette-color="primary" id="text-0"></path></svg></g></svg></g></svg></g></svg></g></svg></g></svg></g><defs></defs></svg><rect width="395.52" height="120.84500379075057" fill="none" stroke="none" visibility="hidden"></rect></g></svg></g></svg>